<svg xmlns="http://www.w3.org/2000/svg" xmlns:xlink="http://www.w3.org/1999/xlink" width="250" zoomAndPan="magnify" viewBox="0 0 187.5 187.499992" height="250" preserveAspectRatio="xMidYMid meet" version="1.0"><defs><clipPath id="3d2346824f"><path d="M 27.089844 34 L 160 34 L 160 138 L 27.089844 138 Z M 27.089844 34 " clip-rule="nonzero"/></clipPath></defs><path fill="#ffffff" d="M 0 0 L 187 0 L 187 187 L 0 187 Z M 0 0 " fill-opacity="1" fill-rule="nonzero"/><path fill="#f3faff" d="M 0 0 L 187 0 L 187 187 L 0 187 Z M 0 0 " fill-opacity="1" fill-rule="nonzero"/><g clip-path="url(#3d2346824f)"><path fill="#9a4600" d="M 108.203125 87.71875 L 108.203125 41.773438 C 108.203125 37.707031 104.917969 34.421875 100.851562 34.421875 L 86.148438 34.421875 C 82.082031 34.421875 78.796875 37.707031 78.796875 41.773438 L 78.796875 87.71875 C 78.796875 90.773438 76.339844 93.234375 73.285156 93.234375 C 70.226562 93.234375 67.769531 90.773438 67.769531 87.71875 L 67.769531 45.011719 C 48.011719 52.292969 34.6875 71.132812 34.6875 93.234375 L 34.6875 107.933594 L 152.3125 107.933594 L 152.3125 93.234375 C 152.082031 71.363281 138.894531 52.410156 119.230469 45.035156 L 119.230469 87.71875 C 119.230469 90.773438 116.773438 93.234375 113.714844 93.234375 C 110.660156 93.234375 108.203125 90.773438 108.203125 87.71875 M 36.527344 118.960938 C 31.449219 118.960938 27.335938 123.074219 27.335938 128.152344 C 27.335938 133.230469 31.449219 137.339844 36.527344 137.339844 L 150.472656 137.339844 C 155.550781 137.339844 159.664062 133.230469 159.664062 128.152344 C 159.664062 123.074219 155.550781 118.960938 150.472656 118.960938 Z M 36.527344 118.960938 " fill-opacity="1" fill-rule="nonzero"/></g></svg>