<svg xmlns="http://www.w3.org/2000/svg" xmlns:xlink="http://www.w3.org/1999/xlink" width="250" zoomAndPan="magnify" viewBox="0 0 187.5 187.499992" height="250" preserveAspectRatio="xMidYMid meet" version="1.0"><defs><clipPath id="0aa1a1fd15"><path d="M 21.390625 29.1875 L 165.757812 29.1875 L 165.757812 142 L 21.390625 142 Z M 21.390625 29.1875 " clip-rule="nonzero"/></clipPath></defs><g clip-path="url(#0aa1a1fd15)"><path fill="#9a4600" d="M 109.460938 87.859375 L 109.460938 37.972656 C 109.460938 33.558594 105.894531 29.992188 101.480469 29.992188 L 85.515625 29.992188 C 81.101562 29.992188 77.535156 33.558594 77.535156 37.972656 L 77.535156 87.859375 C 77.535156 91.179688 74.863281 93.847656 71.546875 93.847656 C 68.230469 93.847656 65.5625 91.179688 65.5625 87.859375 L 65.5625 41.492188 C 44.109375 49.398438 29.640625 69.851562 29.640625 93.847656 L 29.640625 109.8125 L 157.355469 109.8125 L 157.355469 93.847656 C 157.105469 70.101562 142.785156 49.523438 121.433594 41.515625 L 121.433594 87.859375 C 121.433594 91.179688 118.765625 93.847656 115.449219 93.847656 C 112.128906 93.847656 109.460938 91.179688 109.460938 87.859375 M 31.636719 121.785156 C 26.125 121.785156 21.660156 126.25 21.660156 131.761719 C 21.660156 137.273438 26.125 141.738281 31.636719 141.738281 L 155.359375 141.738281 C 160.871094 141.738281 165.335938 137.273438 165.335938 131.761719 C 165.335938 126.25 160.871094 121.785156 155.359375 121.785156 Z M 31.636719 121.785156 " fill-opacity="1" fill-rule="nonzero"/></g></svg>