<svg xmlns="http://www.w3.org/2000/svg" xmlns:xlink="http://www.w3.org/1999/xlink" width="250" zoomAndPan="magnify" viewBox="0 0 187.5 187.499992" height="250" preserveAspectRatio="xMidYMid meet" version="1.0"><path fill="#f3faff" d="M 112.199219 95.839844 L 112.199219 37.398438 C 112.199219 32.226562 108.023438 28.050781 102.851562 28.050781 L 84.152344 28.050781 C 78.980469 28.050781 74.800781 32.226562 74.800781 37.398438 L 74.800781 95.839844 C 74.800781 99.722656 71.675781 102.851562 67.789062 102.851562 C 63.902344 102.851562 60.777344 99.722656 60.777344 95.839844 L 60.777344 41.519531 C 35.648438 50.78125 18.699219 74.742188 18.699219 102.851562 L 18.699219 121.550781 L 168.300781 121.550781 L 168.300781 102.851562 C 168.007812 75.035156 151.238281 50.929688 126.226562 41.550781 L 126.226562 95.839844 C 126.226562 99.722656 123.097656 102.851562 119.214844 102.851562 C 115.328125 102.851562 112.199219 99.722656 112.199219 95.839844 M 21.039062 135.574219 C 14.582031 135.574219 9.351562 140.804688 9.351562 147.261719 C 9.351562 153.722656 14.582031 158.949219 21.039062 158.949219 L 165.964844 158.949219 C 172.421875 158.949219 177.652344 153.722656 177.652344 147.261719 C 177.652344 140.804688 172.421875 135.574219 165.964844 135.574219 Z M 21.039062 135.574219 " fill-opacity="1" fill-rule="nonzero"/></svg>